<svg id="Tailorin_Logo_2" data-name="Tailorin Logo 2" xmlns="http://www.w3.org/2000/svg" width="253.415" height="228.538" viewBox="0 0 253.415 228.538">
  <g id="Group_4" data-name="Group 4" transform="matrix(0.208, -0.978, 0.978, 0.208, -224.298, 199.616)">
    <g id="Group_1" data-name="Group 1" transform="translate(434.135 65.963) rotate(83)">
      <path id="Path_6" data-name="Path 6" d="M220.527,288.2c-9.1,32.316,18.028,71.195,18.028,71.195L124.714,214.836Z" fill="#a20505"/>
      <path id="Path_7" data-name="Path 7" d="M220.8,288.181c-3.771,15.082-1.633,21.5-1.633,21.5l-94.447-94.845Z" fill="#720000"/>
    </g>
    <g id="Group_3" data-name="Group 3" transform="translate(-14.403 9.195)">
      <ellipse id="Ellipse_3" data-name="Ellipse 3" cx="22.5" cy="23" rx="22.5" ry="23" transform="translate(120 330)" fill="#720000"/>
      <ellipse id="Ellipse_4" data-name="Ellipse 4" cx="18.5" cy="19" rx="18.5" ry="19" transform="translate(122 332)" fill="#a20505"/>
      <circle id="Ellipse_5" data-name="Ellipse 5" cx="14.5" cy="14.5" r="14.5" transform="translate(128 339)" fill="#fff"/>
    </g>
    <g id="Group_5" data-name="Group 5" transform="translate(485.81 393.419) rotate(129)">
      <path id="Path_6-2" data-name="Path 6" d="M138.117,288.2c8.51,32.316-20.249,71.541-20.249,71.541l109.82-144.909Z" transform="translate(0)" fill="#a20505"/>
      <path id="Path_7-2" data-name="Path 7" d="M123.7,287.93c3.489,15.082,16.154,8.982,16.154,8.982l73.766-82.076Z" transform="translate(13.078 -0.139)" fill="#720000"/>
    </g>
    <g id="Group_7" data-name="Group 7" transform="translate(18.25 -96.912)">
      <ellipse id="Ellipse_3-2" data-name="Ellipse 3" cx="22.5" cy="23" rx="22.5" ry="23" transform="translate(120 330)" fill="#720000"/>
      <ellipse id="Ellipse_4-2" data-name="Ellipse 4" cx="18.5" cy="19" rx="18.5" ry="19" transform="translate(122 332)" fill="#a20505"/>
      <circle id="Ellipse_5-2" data-name="Ellipse 5" cx="14.5" cy="14.5" r="14.5" transform="translate(128 339)" fill="#fff"/>
    </g>
  </g>
  <path id="Path_11" data-name="Path 11" d="M.806,16.6V13.087H20.483V16.6H12.476V49H8.813V16.6Zm50.757,5.835V49H48.193V44.435a14.65,14.65,0,0,1-4.822,3.931,13.47,13.47,0,0,1-15.479-2.771A13.711,13.711,0,0,1,23.9,35.646a13.461,13.461,0,0,1,4.028-9.814,13.135,13.135,0,0,1,9.692-4.077,12.533,12.533,0,0,1,5.92,1.392,13.473,13.473,0,0,1,4.651,4.175V22.438ZM37.9,25.05a10.307,10.307,0,0,0-9.108,5.341,10.762,10.762,0,0,0,.012,10.73,10.477,10.477,0,0,0,3.865,3.987,10.1,10.1,0,0,0,5.206,1.427,10.671,10.671,0,0,0,5.316-1.414,9.892,9.892,0,0,0,3.865-3.829,10.927,10.927,0,0,0,1.353-5.438,10.571,10.571,0,0,0-3.036-7.706A10.056,10.056,0,0,0,37.9,25.05ZM60.437,11.5a2.828,2.828,0,0,1,2.82,2.832,2.808,2.808,0,0,1-5.615,0,2.734,2.734,0,0,1,.826-2A2.683,2.683,0,0,1,60.437,11.5Zm-1.7,10.938h3.418V49H58.74ZM68.75,12.184h3.418V49H68.75Z" transform="translate(37.79 118.326)" fill="#640000"/>
  <path id="Path_12" data-name="Path 12" d="M2.515,22.438H6.006v3.882a12.257,12.257,0,0,1,3.3-3.43,6.5,6.5,0,0,1,3.613-1.135,6.234,6.234,0,0,1,3.027.9L14.16,25.538a4.754,4.754,0,0,0-1.807-.464,4.942,4.942,0,0,0-3.3,1.4,8.876,8.876,0,0,0-2.417,4.358q-.635,2.271-.635,9.18V49H2.515ZM20.032,11.5a2.828,2.828,0,0,1,2.82,2.832,2.8,2.8,0,0,1-4.789,1.978,2.706,2.706,0,0,1-.826-1.978,2.734,2.734,0,0,1,.826-2A2.683,2.683,0,0,1,20.032,11.5Zm-1.7,10.938h3.418V49H18.335Zm10.522,0h3.418V27.2a14.287,14.287,0,0,1,4.541-4.089,11.158,11.158,0,0,1,5.42-1.355,9.417,9.417,0,0,1,5.286,1.514,9.017,9.017,0,0,1,3.406,4.077q1.1,2.563,1.1,7.983V49H48.608V36.329a31.218,31.218,0,0,0-.38-6.128,6.73,6.73,0,0,0-2.279-3.967,6.883,6.883,0,0,0-4.4-1.331A8.431,8.431,0,0,0,36,26.954a9.607,9.607,0,0,0-3.235,5.078,35.318,35.318,0,0,0-.488,7.227V49H28.857Z" transform="translate(182.79 118.326)" fill="#640000"/>
</svg>
